<?xml version="1.0" encoding="utf-8"?>
<!-- Generator: Adobe Illustrator 18.1.1, SVG Export Plug-In . SVG Version: 6.00 Build 0)  -->
<svg version="1.1" id="Layer_1" xmlns="http://www.w3.org/2000/svg" xmlns:xlink="http://www.w3.org/1999/xlink" x="0px" y="0px"
	 viewBox="0 0 18 22" enable-background="new 0 0 18 22" xml:space="preserve">
<g>
	
		<path fill="none" stroke="#FFFFFF" stroke-width="1.402" stroke-linecap="round" stroke-linejoin="round" stroke-miterlimit="10" d="
		M6.687,3.476V2.922c0-1.16,1.109-2.093,2.48-2.093c1.37,0,2.478,0.933,2.478,2.093v0.554"/>
	<g>
		
			<path fill="none" stroke="#FFFFFF" stroke-width="1.402" stroke-linecap="round" stroke-linejoin="round" stroke-miterlimit="10" d="
			M16.539,5.841L14.924,19.52c0,0.877-2.578,1.586-5.758,1.586c-3.18,0-5.758-0.71-5.758-1.586L1.792,5.841"/>
		<g>
			
				<line fill="none" stroke="#FFFFFF" stroke-width="1.402" stroke-linecap="round" stroke-linejoin="round" stroke-miterlimit="10" x1="6.742" y1="10.968" x2="7.362" y2="17.42"/>
			
				<line fill="none" stroke="#FFFFFF" stroke-width="1.402" stroke-linecap="round" stroke-linejoin="round" stroke-miterlimit="10" x1="11.59" y1="10.968" x2="10.968" y2="17.42"/>
		</g>
		
			<path fill="none" stroke="#FFFFFF" stroke-width="1.402" stroke-linecap="round" stroke-linejoin="round" stroke-miterlimit="10" d="
			M13.975,2.232C15.87,2.771,17.09,3.62,17.09,4.576c0,1.624-3.547,2.944-7.924,2.944c-4.378,0-7.925-1.319-7.925-2.944
			c0-0.956,1.223-1.805,3.121-2.344"/>
	</g>
</g>
</svg>
