<?xml version="1.0" encoding="utf-8"?>
<!-- Generator: Adobe Illustrator 18.1.1, SVG Export Plug-In . SVG Version: 6.00 Build 0)  -->
<svg version="1.1" id="Layer_1" xmlns="http://www.w3.org/2000/svg" xmlns:xlink="http://www.w3.org/1999/xlink" x="0px" y="0px"
	 viewBox="0 0 48 48" enable-background="new 0 0 48 48" xml:space="preserve">
<g>
	
		<path fill="none" stroke="#ffffff" stroke-width="1.5423" stroke-linecap="round" stroke-linejoin="round" stroke-miterlimit="10" d="
		M22,16.4v-0.5c0-1.1,1.1-2,2.3-2c1.3,0,2.3,0.9,2.3,2v0.5"/>
	<g>
		
			<path fill="none" stroke="#ffffff" stroke-width="1.5423" stroke-linecap="round" stroke-linejoin="round" stroke-miterlimit="10" d="
			M31.4,18.7l-1.5,12.9c0,0.8-2.4,1.5-5.4,1.5c-3,0-5.4-0.7-5.4-1.5l-1.5-12.9"/>
		<g>
			
				<line fill="none" stroke="#ffffff" stroke-width="1.5423" stroke-linecap="round" stroke-linejoin="round" stroke-miterlimit="10" x1="22.1" y1="23.5" x2="22.7" y2="29.6"/>
			
				<line fill="none" stroke="#ffffff" stroke-width="1.5423" stroke-linecap="round" stroke-linejoin="round" stroke-miterlimit="10" x1="26.7" y1="23.5" x2="26.1" y2="29.6"/>
		</g>
		
			<path fill="none" stroke="#ffffff" stroke-width="1.5423" stroke-linecap="round" stroke-linejoin="round" stroke-miterlimit="10" d="
			M28.9,15.2c1.8,0.5,2.9,1.3,2.9,2.2c0,1.5-3.4,2.8-7.5,2.8c-4.1,0-7.5-1.2-7.5-2.8c0-0.9,1.2-1.7,3-2.2"/>
	</g>
</g>
</svg>
