<?xml version="1.0" encoding="utf-8"?>
<!-- Generator: Adobe Illustrator 18.1.1, SVG Export Plug-In . SVG Version: 6.00 Build 0)  -->
<svg version="1.1" xmlns="http://www.w3.org/2000/svg" xmlns:xlink="http://www.w3.org/1999/xlink" x="0px" y="0px"
	 viewBox="0 0 24 24" enable-background="new 0 0 24 24" xml:space="preserve">
<g id="Layer_1">
	<g>
		
			<polyline fill="none" stroke="#FFFFFF" stroke-width="1.403" stroke-linecap="round" stroke-linejoin="round" stroke-miterlimit="10" points="
			3.594,9.179 3.594,1.348 20.406,1.348 20.406,9.179 		"/>
		
			<rect x="2.758" y="9.83" fill="none" stroke="#FFFFFF" stroke-width="1.403" stroke-linecap="round" stroke-linejoin="round" stroke-miterlimit="10" width="18.484" height="7.048"/>
		<g>
			
				<path fill="none" stroke="#FFFFFF" stroke-width="1.403" stroke-linecap="round" stroke-linejoin="round" stroke-miterlimit="10" d="
				M14.276,12.527v0.186c0,0.45-0.365,0.817-0.816,0.817h-2.919c-0.452,0-0.817-0.367-0.817-0.817v-0.186"/>
		</g>
		<g>
			
				<path fill="none" stroke="#FFFFFF" stroke-width="1.403" stroke-linecap="round" stroke-linejoin="round" stroke-miterlimit="10" d="
				M14.034,3.863v0.181c0,0.445-0.359,0.804-0.802,0.804h-2.464c-0.443,0-0.802-0.359-0.802-0.804V3.863"/>
		</g>
		
			<polyline fill="none" stroke="#FFFFFF" stroke-width="1.403" stroke-linecap="round" stroke-linejoin="round" stroke-miterlimit="10" points="
			20.406,17.193 20.406,22.652 3.607,22.652 3.594,17.193 		"/>
		<g>
			
				<path fill="none" stroke="#FFFFFF" stroke-width="1.403" stroke-linecap="round" stroke-linejoin="round" stroke-miterlimit="10" d="
				M14.034,18.939v0.182c0,0.443-0.359,0.802-0.802,0.802h-2.464c-0.443,0-0.802-0.358-0.802-0.802v-0.182"/>
		</g>
		
			<line fill="none" stroke="#FFFFFF" stroke-width="1.403" stroke-linecap="round" stroke-linejoin="round" stroke-miterlimit="10" x1="20.406" y1="7.482" x2="3.594" y2="7.482"/>
		<g>
			
				<line fill="none" stroke="#FFFFFF" stroke-width="1.403" stroke-linecap="round" stroke-linejoin="round" stroke-miterlimit="10" x1="18.745" y1="9.78" x2="17.261" y2="7.482"/>
			
				<line fill="none" stroke="#FFFFFF" stroke-width="1.403" stroke-linecap="round" stroke-linejoin="round" stroke-miterlimit="10" x1="5.255" y1="9.78" x2="6.738" y2="7.482"/>
		</g>
	</g>
</g>
<g id="labels">
</g>
</svg>
