<?xml version="1.0" encoding="utf-8"?>
<!-- Generator: Adobe Illustrator 18.1.1, SVG Export Plug-In . SVG Version: 6.00 Build 0)  -->
<svg version="1.1" id="Layer_1" xmlns="http://www.w3.org/2000/svg" xmlns:xlink="http://www.w3.org/1999/xlink" x="0px" y="0px"
	 viewBox="0 0 40 40" enable-background="new 0 0 40 40" xml:space="preserve">
<g>
	<path fill="none" stroke="#FFFFFF" stroke-width="2" stroke-linecap="round" stroke-linejoin="round" stroke-miterlimit="10" d="
		M35.2,30.4l-7.6-8.3c-1.4-1.4-3.6-1.5-4.9-0.2c-1.3,1.3-3.5,1.2-4.9-0.2l-3.5-3.5c-1.4-1.4-3-1.4-4.4,0l-5.1,5.2"/>
	<path fill="none" stroke="#FFFFFF" stroke-width="2" stroke-linecap="round" stroke-linejoin="round" stroke-miterlimit="10" d="
		M21.9,20.6c-1.6-1.9-1.3-4.8,0.6-6.4c1.9-1.6,4.8-1.3,6.4,0.6c1.6,1.9,1.3,4.8-0.6,6.4"/>
	<path fill="none" stroke="#FFFFFF" stroke-width="2" stroke-linecap="round" stroke-linejoin="round" stroke-miterlimit="10" d="
		M35.4,32.5c0,1.6-1.3,2.9-2.9,2.9h-25c-1.6,0-2.9-1.3-2.9-2.9v-25c0-1.6,1.3-2.9,2.9-2.9h25c1.6,0,2.9,1.3,2.9,2.9V32.5z"/>
</g>
</svg>
