<?xml version="1.0" encoding="utf-8"?>
<!-- Generator: Adobe Illustrator 18.1.1, SVG Export Plug-In . SVG Version: 6.00 Build 0)  -->
<svg version="1.1" id="Layer_1" xmlns="http://www.w3.org/2000/svg" xmlns:xlink="http://www.w3.org/1999/xlink" x="0px" y="0px"
	 viewBox="0 0 40 40" enable-background="new 0 0 40 40" xml:space="preserve">
<g>
	<path fill="none" stroke="#FFFFFF" stroke-width="2" stroke-linecap="round" stroke-linejoin="round" stroke-miterlimit="10" d="
		M35.4,32.5c0,1.6-1.3,2.9-2.9,2.9h-25c-1.6,0-2.9-1.3-2.9-2.9v-25c0-1.6,1.3-2.9,2.9-2.9h25c1.6,0,2.9,1.3,2.9,2.9V32.5z"/>
</g>
<path fill="#FFFFFF" d="M12.5,10.9H9.1c-0.5,0-1-0.4-1-1s0.4-1,1-1h3.4c0.5,0,1,0.4,1,1S13.1,10.9,12.5,10.9z"/>
<path fill="#FFFFFF" d="M21.7,10.9h-3.4c-0.5,0-1-0.4-1-1s0.4-1,1-1h3.4c0.5,0,1,0.4,1,1S22.3,10.9,21.7,10.9z"/>
<path fill="#FFFFFF" d="M16.8,24.2c-0.2,0-0.4,0-0.5-0.1c-0.3-0.2-0.5-0.5-0.5-0.8v-6.5c0-0.3,0.2-0.6,0.5-0.8
	c0.3-0.2,0.6-0.2,0.9,0l6.4,3.3c0.3,0.2,0.5,0.5,0.5,0.9s-0.2,0.7-0.5,0.9l-6.4,3.3C17.1,24.2,17,24.2,16.8,24.2z M17.8,18.3v3.3
	l3.3-1.7L17.8,18.3z"/>
<path fill="#FFFFFF" d="M30.9,10.9h-3.4c-0.5,0-1-0.4-1-1s0.4-1,1-1h3.4c0.5,0,1,0.4,1,1S31.4,10.9,30.9,10.9z"/>
<path fill="#FFFFFF" d="M12.5,30.9H9.1c-0.5,0-1-0.4-1-1s0.4-1,1-1h3.4c0.5,0,1,0.4,1,1S13.1,30.9,12.5,30.9z"/>
<path fill="#FFFFFF" d="M21.7,30.9h-3.4c-0.5,0-1-0.4-1-1s0.4-1,1-1h3.4c0.5,0,1,0.4,1,1S22.3,30.9,21.7,30.9z"/>
<path fill="#FFFFFF" d="M30.9,30.9h-3.4c-0.5,0-1-0.4-1-1s0.4-1,1-1h3.4c0.5,0,1,0.4,1,1S31.4,30.9,30.9,30.9z"/>
</svg>
